<mxfile host="app.diagrams.net" modified="2021-09-03T06:04:32.375Z" agent="5.0 (Macintosh; Intel Mac OS X 10_14_6) AppleWebKit/537.36 (KHTML, like Gecko) Chrome/92.0.4515.159 Safari/537.36" etag="e0P3evDWSXokciDuUvc3" version="14.9.9" type="github">
  <diagram id="yYFwhnovY7y_ya-9K8k_" name="Page-1">
    <mxGraphModel dx="912" dy="640" grid="1" gridSize="10" guides="1" tooltips="1" connect="1" arrows="1" fold="1" page="1" pageScale="1" pageWidth="827" pageHeight="1169" math="0" shadow="0">
      <root>
        <mxCell id="0" />
        <mxCell id="1" parent="0" />
        <mxCell id="s8CAlmBSRv7WudQ-XdqJ-4" style="edgeStyle=orthogonalEdgeStyle;rounded=0;orthogonalLoop=1;jettySize=auto;html=1;entryX=0.5;entryY=0;entryDx=0;entryDy=0;" edge="1" parent="1" source="s8CAlmBSRv7WudQ-XdqJ-1" target="s8CAlmBSRv7WudQ-XdqJ-2">
          <mxGeometry relative="1" as="geometry" />
        </mxCell>
        <mxCell id="s8CAlmBSRv7WudQ-XdqJ-1" value="查看tb_task,&lt;br&gt;过滤符合条件的task" style="rounded=0;whiteSpace=wrap;html=1;" vertex="1" parent="1">
          <mxGeometry x="90" y="180" width="120" height="70" as="geometry" />
        </mxCell>
        <mxCell id="s8CAlmBSRv7WudQ-XdqJ-5" style="edgeStyle=orthogonalEdgeStyle;rounded=0;orthogonalLoop=1;jettySize=auto;html=1;entryX=0.5;entryY=0;entryDx=0;entryDy=0;" edge="1" parent="1" source="s8CAlmBSRv7WudQ-XdqJ-2" target="s8CAlmBSRv7WudQ-XdqJ-3">
          <mxGeometry relative="1" as="geometry" />
        </mxCell>
        <mxCell id="s8CAlmBSRv7WudQ-XdqJ-2" value="根据task查子task数目" style="rounded=0;whiteSpace=wrap;html=1;" vertex="1" parent="1">
          <mxGeometry x="90" y="290" width="120" height="60" as="geometry" />
        </mxCell>
        <mxCell id="s8CAlmBSRv7WudQ-XdqJ-3" value="填充主task 数目和待办人" style="rounded=0;whiteSpace=wrap;html=1;" vertex="1" parent="1">
          <mxGeometry x="90" y="420" width="120" height="60" as="geometry" />
        </mxCell>
      </root>
    </mxGraphModel>
  </diagram>
</mxfile>
